HIERARCHY
ROOT Hips
{
	OFFSET 0.000000 0.000000 0.000000
	CHANNELS 6 Xposition Yposition Zposition Xrotation Yrotation Zrotation
	JOINT LeftUpLeg_virtual
	{
		OFFSET 0.000000 0.000000 0.000000
		CHANNELS 3 Xrotation Yrotation Zrotation
		JOINT LeftUpLeg
		{
			OFFSET 15.427100 -6.655098 0.678600
			CHANNELS 3 Xrotation Yrotation Zrotation
			JOINT LeftLeg
			{
				OFFSET 4.081073 -39.591068 13.024000
				CHANNELS 3 Xrotation Yrotation Zrotation
				JOINT LeftFoot
				{
					OFFSET -4.081074 -37.707932 -15.979700
					CHANNELS 3 Xrotation Yrotation Zrotation
					JOINT LeftToeBase
					{
						OFFSET 5.346399 -15.068900 20.645000
						CHANNELS 3 Xrotation Yrotation Zrotation
						JOINT LeftToe_End
						{
							OFFSET 2.754700 0.931300 11.300900
							CHANNELS 3 Xrotation Yrotation Zrotation
							End Site
							{
								OFFSET 0 0 0
							}
						}
					}
				}
			}
		}
	}
	JOINT RightUpLeg_virtual
	{
		OFFSET 0.000000 0.000000 0.000000
		CHANNELS 3 Xrotation Yrotation Zrotation
		JOINT RightUpLeg
		{
			OFFSET -15.569500 -6.655098 0.678600
			CHANNELS 3 Xrotation Yrotation Zrotation
			JOINT RightLeg
			{
				OFFSET -4.081825 -39.591045 13.023800
				CHANNELS 3 Xrotation Yrotation Zrotation
				JOINT RightFoot
				{
					OFFSET 4.081824 -37.707954 -15.979600
					CHANNELS 3 Xrotation Yrotation Zrotation
					JOINT RightToeBase
					{
						OFFSET -5.346400 -15.068900 20.645000
						CHANNELS 3 Xrotation Yrotation Zrotation
						JOINT RightToe_End
						{
							OFFSET -2.754700 0.931300 11.300900
							CHANNELS 3 Xrotation Yrotation Zrotation
							End Site
							{
								OFFSET 0 0 0
							}
						}
					}
				}
			}
		}
	}
	JOINT Spine_virtual
	{
		OFFSET 0.000000 0.000000 0.000000
		CHANNELS 3 Xrotation Yrotation Zrotation
		JOINT Spine
		{
			OFFSET -0.279200 12.230698 -2.892100
			CHANNELS 3 Xrotation Yrotation Zrotation
			JOINT Spine1
			{
				OFFSET -0.232667 10.192268 -1.242267
				CHANNELS 3 Xrotation Yrotation Zrotation
				JOINT Spine1_split
				{
					OFFSET -0.232667 10.192268 -1.242267
					CHANNELS 3 Xrotation Yrotation Zrotation
					JOINT Spine2
					{
						OFFSET -0.232667 10.192268 -1.242267
						CHANNELS 3 Xrotation Yrotation Zrotation
						JOINT Neck_virtual
						{
							OFFSET 0.000000 0.000000 0.000000
							CHANNELS 3 Xrotation Yrotation Zrotation
							JOINT Neck
							{
								OFFSET -0.418800 17.814194 8.416900
								CHANNELS 3 Xrotation Yrotation Zrotation
								JOINT Head
								{
									OFFSET 0.000000 7.031097 3.806800
									CHANNELS 3 Xrotation Yrotation Zrotation
									JOINT HeadTop_End
									{
										OFFSET 0.000000 24.646606 12.978600
										CHANNELS 3 Xrotation Yrotation Zrotation
										End Site
										{
											OFFSET 0 0 0
										}
									}
								}
							}
						}
						JOINT LeftShoulder_virtual
						{
							OFFSET 0.000000 0.000000 0.000000
							CHANNELS 3 Xrotation Yrotation Zrotation
							JOINT LeftShoulder
							{
								OFFSET 8.476499 7.247704 -3.868750
								CHANNELS 3 Xrotation Yrotation Zrotation
								JOINT LeftShoulder_split
								{
									OFFSET 8.476499 7.247704 -3.868750
									CHANNELS 3 Xrotation Yrotation Zrotation
									JOINT LeftArm
									{
										OFFSET 9.308998 -2.777710 0.208600
										CHANNELS 3 Xrotation Yrotation Zrotation
										JOINT LeftForeArm
										{
											OFFSET 29.972298 0.000000 0.000000
											CHANNELS 3 Xrotation Yrotation Zrotation
											JOINT LeftHand
											{
												OFFSET 26.026505 0.000000 0.000000
												CHANNELS 3 Xrotation Yrotation Zrotation
												End Site
												{
													OFFSET 0 0 0
												}
											}
										}
									}
								}
							}
						}
						JOINT RightShoulder_virtual
						{
							OFFSET 0.000000 0.000000 0.000000
							CHANNELS 3 Xrotation Yrotation Zrotation
							JOINT RightShoulder
							{
								OFFSET -7.570500 7.247704 -3.868750
								CHANNELS 3 Xrotation Yrotation Zrotation
								JOINT RightShoulder_split
								{
									OFFSET -7.570500 7.247704 -3.868750
									CHANNELS 3 Xrotation Yrotation Zrotation
									JOINT RightArm
									{
										OFFSET -9.308998 -2.777710 0.208500
										CHANNELS 3 Xrotation Yrotation Zrotation
										JOINT RightForeArm
										{
											OFFSET -29.972300 0.000000 0.000000
											CHANNELS 3 Xrotation Yrotation Zrotation
											JOINT RightHand
											{
												OFFSET -26.026505 0.000000 0.000000
												CHANNELS 3 Xrotation Yrotation Zrotation
												End Site
												{
													OFFSET 0 0 0
												}
											}
										}
									}
								}
							}
						}
					}
				}
			}
		}
	}
}
MOTION
Frames: 11
Frame Time: 0.03333333
0.353486 82.921906 45.190895 0.000000 0.000000 0.000000 9.817298 -6.263637 0.305506 -28.903977 5.820071 21.025189 39.296660 6.079486 0.769390 -16.165429 -1.498708 -15.443712 0.622075 -0.363972 0.967128 0.000000 0.000000 0.000000 10.092129 -6.321337 0.601691 -35.986542 -0.089009 -10.301234 43.290951 2.961638 -2.657861 -14.587961 -12.191519 11.008775 2.010443 0.848333 0.557995 0.000000 0.000000 0.000000 9.991053 -5.871934 0.347340 6.317826 0.242620 -0.412749 1.701890 -0.367668 0.441194 1.049197 1.501114 -0.068977 0.000000 0.000000 0.000000 1.595976 -0.815168 0.415108 12.523729 -0.426071 0.819886 -30.023200 0.765130 -4.887188 0.000000 0.000000 0.000000 1.461935 -0.710088 0.676596 5.905186 -9.337502 19.392285 -1.076260 -4.142277 -0.008929 -32.864702 -15.041062 -13.611627 178.335297 -58.130961 179.662935 0.000000 0.000000 0.000000 0.803399 -0.777183 0.585281 -0.841290 -8.201144 -16.537343 0.456206 -0.216254 1.775433 -38.404023 35.471334 31.167970 179.104321 52.312856 -179.631038 0.000000 0.000000 0.000000 
0.299489 84.632095 45.967541 0.000000 0.000000 0.000000 10.042729 -6.088772 0.441904 -26.687525 6.592566 20.606834 34.414253 6.145488 0.769973 -14.444081 -1.821010 -15.032333 1.040858 -0.270171 0.655517 0.000000 0.000000 0.000000 10.418228 -5.999648 0.651591 -33.681596 -0.530826 -10.132481 38.979975 2.638357 -2.728575 -12.519259 -12.240858 11.113802 1.656636 0.814554 0.648115 0.000000 0.000000 0.000000 10.351475 -5.694309 0.463388 6.068498 0.116365 -0.323665 0.848870 -0.399083 0.293316 1.157649 1.399704 0.064815 0.000000 0.000000 0.000000 0.614322 -0.845106 0.283520 12.282985 -0.356118 0.980640 -28.993969 0.733914 -4.673284 0.000000 0.000000 0.000000 0.425768 -0.759021 0.492822 5.910531 -9.317193 19.135130 -1.319483 -3.948973 -0.019082 -32.325414 -15.471215 -13.985585 178.590828 -58.302085 179.903057 0.000000 0.000000 0.000000 -0.243941 -0.794577 0.472774 -0.935285 -8.118195 -16.550447 0.694844 -0.559272 1.857986 -36.940692 36.239987 30.512029 179.027468 52.486066 -179.328775 0.000000 0.000000 0.000000 
0.251933 86.128189 46.626698 0.000000 0.000000 0.000000 10.214254 -5.856392 0.542456 -24.785032 7.267484 20.200629 30.038035 6.170679 0.697854 -12.741312 -2.313748 -14.669038 1.312582 -0.161479 0.441912 0.000000 0.000000 0.000000 10.680132 -5.566354 0.664746 -31.613015 -0.860350 -9.991198 35.207440 2.294540 -2.771742 -10.570543 -12.277579 11.212786 1.446271 0.780437 0.730196 0.000000 0.000000 0.000000 10.611156 -5.378107 0.545451 5.915836 0.005937 -0.251697 0.090665 -0.461297 0.198132 1.210810 1.305655 0.183291 0.000000 0.000000 0.000000 -0.211837 -0.900618 0.215048 11.847373 -0.295049 1.049119 -27.990219 0.754516 -4.505757 0.000000 0.000000 0.000000 -0.480863 -0.810636 0.358982 5.813913 -8.961513 18.878486 -1.457002 -3.892581 0.003754 -31.473631 -16.701151 -14.281698 178.843053 -58.684412 -179.876679 0.000000 0.000000 0.000000 -1.146588 -0.834567 0.390371 -1.070433 -8.119224 -16.448564 0.800347 -0.945455 1.888531 -35.437538 37.065207 30.065311 178.941394 52.724648 -178.991350 0.000000 0.000000 0.000000 
0.235300 87.255264 47.090446 0.000000 0.000000 0.000000 10.290180 -5.603365 0.595055 -23.368072 7.797691 19.872234 26.557529 6.181559 0.529396 -11.167561 -2.901124 -14.390847 1.399518 -0.050210 0.352070 0.000000 0.000000 0.000000 10.853739 -5.097693 0.648383 -29.980825 -1.091050 -9.909045 32.220034 1.976747 -2.800592 -8.996152 -12.259879 11.269860 1.550503 0.750137 0.784211 0.000000 0.000000 0.000000 10.761934 -5.027532 0.589630 5.862674 -0.064771 -0.186054 -0.505344 -0.535614 0.160012 1.222813 1.263205 0.200189 0.000000 0.000000 0.000000 -0.820267 -0.975620 0.215777 11.346945 -0.252047 1.064865 -27.006358 0.837071 -4.416986 0.000000 0.000000 0.000000 -1.205623 -0.861162 0.297319 5.641225 -8.262523 18.660569 -1.545123 -3.863108 0.062478 -30.516684 -18.544409 -14.520407 179.108638 -58.819397 -179.618061 0.000000 0.000000 0.000000 -1.820009 -0.883790 0.347174 -1.235069 -8.216929 -16.253489 0.734789 -1.096679 1.891646 -34.145711 37.683889 29.907841 178.879267 52.887128 -178.716531 0.000000 0.000000 0.000000 
0.236124 87.975922 47.399189 0.000000 0.000000 0.000000 10.308502 -5.402938 0.614414 -22.484631 8.133150 19.656494 24.154218 6.181418 0.272755 -9.769776 -3.518301 -14.208321 1.474054 0.045518 0.351190 0.000000 0.000000 0.000000 10.942990 -4.715139 0.616514 -28.880417 -1.225454 -9.888760 30.180711 1.699910 -2.795824 -7.881600 -12.210506 11.233132 1.869769 0.723591 0.815986 0.000000 0.000000 0.000000 10.803392 -4.671799 0.607801 5.889096 -0.082388 -0.118567 -0.930659 -0.609312 0.159118 1.236496 1.282400 0.140364 0.000000 0.000000 0.000000 -1.212258 -1.052583 0.267654 10.926670 -0.202835 1.066158 -26.017287 0.967756 -4.419143 0.000000 0.000000 0.000000 -1.746976 -0.895238 0.292804 5.408709 -7.241746 18.397705 -1.453094 -4.026565 0.149509 -29.456837 -20.703859 -14.826078 179.356861 -58.360968 -179.363991 0.000000 0.000000 0.000000 -2.239688 -0.933857 0.320877 -1.400116 -8.389076 -16.027182 0.441890 -0.993160 1.981146 -33.010209 37.836796 29.997562 178.886821 52.840980 -178.590814 0.000000 0.000000 0.000000 
0.237627 88.340424 47.528976 0.000000 0.000000 0.000000 10.292710 -5.289840 0.622889 -22.130585 8.280220 19.566747 22.786701 6.230283 -0.063766 -8.660764 -4.062711 -14.001335 1.745566 0.123599 0.353140 0.000000 0.000000 0.000000 10.963703 -4.405446 0.597432 -28.254667 -1.308800 -9.931839 28.992804 1.452642 -2.753549 -7.165594 -12.150687 11.103472 2.200341 0.694978 0.825857 0.000000 0.000000 0.000000 10.771575 -4.325043 0.608916 5.960358 -0.044583 -0.047621 -1.210593 -0.671243 0.168184 1.165577 1.261627 0.035955 0.000000 0.000000 0.000000 -1.454055 -1.121528 0.328638 10.701849 -0.144873 1.068654 -24.957798 1.095528 -4.521575 0.000000 0.000000 0.000000 -2.137439 -0.912155 0.312874 5.159581 -6.044725 17.969219 -1.148687 -4.239097 0.249217 -28.139853 -22.887711 -15.322145 179.517575 -57.393103 -179.188688 0.000000 0.000000 0.000000 -2.461337 -0.978044 0.292035 -1.534660 -8.581469 -15.809709 -0.018067 -0.789494 2.042557 -31.805630 37.340835 30.280578 178.992019 52.570573 -178.669921 0.000000 0.000000 0.000000 
0.214278 88.456528 47.470264 0.000000 0.000000 0.000000 10.260554 -5.268589 0.638583 -22.175942 8.205292 19.545881 22.179371 6.328207 -0.411125 -7.880939 -4.450367 -13.740742 2.172381 0.190558 0.316752 0.000000 0.000000 0.000000 10.920557 -4.196381 0.596212 -28.047156 -1.363411 -10.007521 28.438942 1.217345 -2.689103 -6.712880 -12.116630 10.957446 2.351234 0.651780 0.827049 0.000000 0.000000 0.000000 10.711473 -4.049807 0.609150 6.034955 0.044391 0.042252 -1.401911 -0.710275 0.172220 1.062738 1.303033 -0.027085 0.000000 0.000000 0.000000 -1.649824 -1.178251 0.374873 10.704184 -0.073460 1.075525 -23.792701 1.144699 -4.703483 0.000000 0.000000 0.000000 -2.426552 -0.931327 0.321995 4.954247 -4.914100 17.229448 -0.696455 -4.432245 0.473872 -26.441665 -24.801102 -16.181954 179.513217 -56.449212 -179.216664 0.000000 0.000000 0.000000 -2.555756 -1.002491 0.253847 -1.619190 -8.695349 -15.656819 -0.376191 -0.539732 2.069174 -30.300850 36.251290 30.817954 179.163840 52.165823 -178.924346 0.000000 0.000000 0.000000 
0.171799 88.441811 47.250629 0.000000 0.000000 0.000000 10.227041 -5.249427 0.663789 -22.471891 7.933015 19.534788 22.097720 6.456825 -0.713922 -7.375220 -4.671878 -13.484696 2.581840 0.240452 0.246628 0.000000 0.000000 0.000000 10.811187 -4.014813 0.623736 -28.120003 -1.402148 -10.116264 28.323620 0.985115 -2.595597 -6.422938 -12.111992 10.814983 2.262203 0.597942 0.841390 0.000000 0.000000 0.000000 10.633419 -3.812722 0.620934 6.090965 0.160058 0.155622 -1.566016 -0.731370 0.163173 0.946182 1.307952 -0.047154 0.000000 0.000000 0.000000 -1.870978 -1.218022 0.392169 10.902193 -0.001758 1.052107 -22.533754 1.047746 -4.929545 0.000000 0.000000 0.000000 -2.651993 -0.949290 0.292553 4.844315 -4.075401 16.077801 -0.286712 -4.622813 0.766780 -24.028952 -26.381959 -17.420280 179.335346 -56.200282 -179.468685 0.000000 0.000000 0.000000 -2.620587 -1.014569 0.208242 -1.625813 -8.603612 -15.616478 -0.639243 -0.399611 1.976057 -28.176277 34.810360 31.680965 179.327300 51.919126 -179.257058 0.000000 0.000000 0.000000 
0.117410 88.397224 46.930126 0.000000 0.000000 0.000000 10.184710 -5.101257 0.685328 -22.901822 7.537271 19.497137 22.240028 6.587882 -0.937951 -6.983267 -4.764371 -13.346961 2.848026 0.277620 0.148472 0.000000 0.000000 0.000000 10.670657 -3.846391 0.669579 -28.339213 -1.447373 -10.258259 28.392996 0.767399 -2.497915 -6.229096 -12.116382 10.722770 2.131680 0.544180 0.870241 0.000000 0.000000 0.000000 10.590497 -3.608670 0.640120 6.126871 0.280835 0.294068 -1.731251 -0.731764 0.156285 0.836699 1.193796 -0.033128 0.000000 0.000000 0.000000 -2.151977 -1.241551 0.397160 11.199299 0.043949 0.966948 -21.198626 0.768324 -5.166404 0.000000 0.000000 0.000000 -2.843055 -0.972068 0.233056 4.862056 -3.726680 14.545503 -0.084981 -4.736760 1.049464 -20.993908 -27.648440 -19.054583 179.013644 -57.005944 -179.896514 0.000000 0.000000 0.000000 -2.719584 -1.000658 0.176673 -1.553050 -8.201467 -15.716366 -0.658413 -0.260202 1.794875 -25.464397 33.412602 33.012657 179.400533 52.114979 -179.569594 0.000000 0.000000 0.000000 
0.070835 88.364700 46.561146 0.000000 0.000000 0.000000 10.116863 -4.813914 0.689491 -23.389050 7.103714 19.455922 22.434141 6.675213 -1.094791 -6.538920 -4.826309 -13.414242 2.910521 0.298679 0.046634 0.000000 0.000000 0.000000 10.511818 -3.656231 0.717293 -28.597831 -1.503207 -10.425100 28.466774 0.564567 -2.402057 -6.122958 -12.127319 10.661498 2.141887 0.505577 0.912521 0.000000 0.000000 0.000000 10.537660 -3.426513 0.659109 6.135334 0.383410 0.452831 -1.912797 -0.720303 0.171668 0.856345 1.080005 0.031481 0.000000 0.000000 0.000000 -2.467432 -1.243692 0.416161 11.488006 0.022530 0.807632 -19.847915 0.307795 -5.383346 0.000000 0.000000 0.000000 -3.017849 -0.987373 0.173411 4.987799 -3.931024 12.773436 -0.120548 -4.917601 1.289492 -17.580226 -28.656356 -21.032210 178.605731 -58.814834 179.573583 0.000000 0.000000 0.000000 -2.865240 -0.962710 0.178071 -1.389427 -7.443377 -15.941670 -0.467933 0.003353 1.527474 -22.273604 32.429861 34.945826 179.330783 52.983755 -179.774581 0.000000 0.000000 0.000000 
0.040002 88.364731 46.202236 0.000000 0.000000 0.000000 10.010304 -4.420779 0.681267 -23.858553 6.728502 19.427594 22.588354 6.735842 -1.198353 -5.998662 -4.901643 -13.608852 2.888535 0.309063 -0.060553 0.000000 0.000000 0.000000 10.370366 -3.436585 0.762138 -28.801292 -1.603393 -10.592738 28.442779 0.382378 -2.320972 -6.093350 -12.147167 10.653863 2.294402 0.493963 0.932487 0.000000 0.000000 0.000000 10.465332 -3.279913 0.675884 6.114279 0.455908 0.617362 -2.103960 -0.698180 0.223977 0.897941 0.924814 0.036837 0.000000 0.000000 0.000000 -2.761541 -1.221087 0.473536 11.701787 -0.075162 0.570269 -18.468567 -0.273925 -5.576333 0.000000 0.000000 0.000000 -3.183973 -0.970131 0.157283 5.179286 -4.638332 10.967172 -0.267632 -5.016403 1.439032 -14.185350 -29.444095 -23.311803 178.211083 -61.226267 179.088708 0.000000 0.000000 0.000000 -3.051956 -0.906018 0.225222 -1.132178 -6.366569 -16.211877 -0.153071 0.351782 1.341456 -18.801142 31.969633 37.411982 179.130426 54.660296 -179.858552 0.000000 0.000000 0.000000 
